<mxfile host="app.diagrams.net" modified="2020-04-20T07:39:05.686Z" agent="5.0 (Windows)" etag="9-FenYJpchH3KJGHL2ng" version="12.9.14" type="github">
  <diagram id="vkDm8yuSiqdQYIu3AHWu" name="Page-1">
    <mxGraphModel dx="569" dy="308" grid="1" gridSize="10" guides="1" tooltips="1" connect="1" arrows="1" fold="1" page="1" pageScale="1" pageWidth="827" pageHeight="1169" math="0" shadow="0">
      <root>
        <mxCell id="0" />
        <mxCell id="1" parent="0" />
        <mxCell id="Ti_JOpd2T_CDMf-D8d6Z-1" value="Personen" style="whiteSpace=wrap;html=1;aspect=fixed;fillColor=#fff2cc;strokeColor=#d6b656;fontStyle=1;rounded=1;glass=0;shadow=0;comic=0;" parent="1" vertex="1">
          <mxGeometry x="60" y="140" width="80" height="80" as="geometry" />
        </mxCell>
        <mxCell id="Ti_JOpd2T_CDMf-D8d6Z-2" value="Inhalt" style="whiteSpace=wrap;html=1;aspect=fixed;fillColor=#dae8fc;strokeColor=#6c8ebf;fontStyle=1;gradientColor=none;rounded=1;" parent="1" vertex="1">
          <mxGeometry x="60" y="300" width="80" height="80" as="geometry" />
        </mxCell>
        <mxCell id="Ti_JOpd2T_CDMf-D8d6Z-4" value="Geschlecht" style="rounded=0;whiteSpace=wrap;html=1;fillColor=#fff2cc;strokeColor=#d6b656;fontStyle=1" parent="1" vertex="1">
          <mxGeometry x="190" y="150" width="90" height="60" as="geometry" />
        </mxCell>
        <mxCell id="Ti_JOpd2T_CDMf-D8d6Z-5" value="MaterialArt" style="rounded=0;whiteSpace=wrap;html=1;fillColor=#dae8fc;strokeColor=#6c8ebf;fontStyle=1" parent="1" vertex="1">
          <mxGeometry x="190" y="310" width="120" height="60" as="geometry" />
        </mxCell>
        <mxCell id="Ti_JOpd2T_CDMf-D8d6Z-6" value="Einsatzort" style="rounded=0;whiteSpace=wrap;html=1;fillColor=#fff2cc;strokeColor=#d6b656;fontStyle=1" parent="1" vertex="1">
          <mxGeometry x="310" y="150" width="96" height="60" as="geometry" />
        </mxCell>
        <mxCell id="Ti_JOpd2T_CDMf-D8d6Z-7" value="Andacht" style="rounded=1;whiteSpace=wrap;html=1;fillColor=#dae8fc;strokeColor=#6c8ebf;fontStyle=0" parent="1" vertex="1">
          <mxGeometry x="215" y="380" width="70" height="30" as="geometry" />
        </mxCell>
        <mxCell id="Ti_JOpd2T_CDMf-D8d6Z-8" value="P채dgagik" style="rounded=1;whiteSpace=wrap;html=1;fillColor=#dae8fc;strokeColor=#6c8ebf;fontStyle=0" parent="1" vertex="1">
          <mxGeometry x="215" y="420" width="70" height="30" as="geometry" />
        </mxCell>
        <mxCell id="Ti_JOpd2T_CDMf-D8d6Z-9" value="Reflexion" style="rounded=1;whiteSpace=wrap;html=1;fillColor=#dae8fc;strokeColor=#6c8ebf;fontStyle=0" parent="1" vertex="1">
          <mxGeometry x="215" y="460" width="70" height="30" as="geometry" />
        </mxCell>
        <mxCell id="Ti_JOpd2T_CDMf-D8d6Z-11" value="f" style="rounded=1;whiteSpace=wrap;html=1;fillColor=#fff2cc;strokeColor=#d6b656;fontStyle=0" parent="1" vertex="1">
          <mxGeometry x="200" y="30" width="70" height="30" as="geometry" />
        </mxCell>
        <mxCell id="Ti_JOpd2T_CDMf-D8d6Z-12" value="m" style="rounded=1;whiteSpace=wrap;html=1;fillColor=#fff2cc;strokeColor=#d6b656;fontStyle=0" parent="1" vertex="1">
          <mxGeometry x="200" y="70" width="70" height="30" as="geometry" />
        </mxCell>
        <mxCell id="Ti_JOpd2T_CDMf-D8d6Z-13" value="dviers" style="rounded=1;whiteSpace=wrap;html=1;fillColor=#fff2cc;strokeColor=#d6b656;fontStyle=0" parent="1" vertex="1">
          <mxGeometry x="200" y="110" width="70" height="30" as="geometry" />
        </mxCell>
        <mxCell id="Ti_JOpd2T_CDMf-D8d6Z-14" value="M체nster" style="rounded=1;whiteSpace=wrap;html=1;fillColor=#fff2cc;strokeColor=#d6b656;fontStyle=0" parent="1" vertex="1">
          <mxGeometry x="323" y="30" width="70" height="30" as="geometry" />
        </mxCell>
        <mxCell id="Ti_JOpd2T_CDMf-D8d6Z-15" value="Hamburg" style="rounded=1;whiteSpace=wrap;html=1;fillColor=#fff2cc;strokeColor=#d6b656;fontStyle=0" parent="1" vertex="1">
          <mxGeometry x="323" y="70" width="70" height="30" as="geometry" />
        </mxCell>
        <mxCell id="Ti_JOpd2T_CDMf-D8d6Z-16" value="Berlin" style="rounded=1;whiteSpace=wrap;html=1;fillColor=#fff2cc;strokeColor=#d6b656;fontStyle=0" parent="1" vertex="1">
          <mxGeometry x="323" y="110" width="70" height="30" as="geometry" />
        </mxCell>
        <mxCell id="Ti_JOpd2T_CDMf-D8d6Z-17" value="Profession" style="rounded=0;whiteSpace=wrap;html=1;fillColor=#fff2cc;strokeColor=#d6b656;fontStyle=1" parent="1" vertex="1">
          <mxGeometry x="435" y="150" width="120" height="60" as="geometry" />
        </mxCell>
        <mxCell id="Ti_JOpd2T_CDMf-D8d6Z-18" value="Musiker*in" style="rounded=1;whiteSpace=wrap;html=1;fillColor=#fff2cc;strokeColor=#d6b656;fontStyle=0" parent="1" vertex="1">
          <mxGeometry x="447.5" y="30" width="95" height="30" as="geometry" />
        </mxCell>
        <mxCell id="Ti_JOpd2T_CDMf-D8d6Z-19" value="P채dagog*in" style="rounded=1;whiteSpace=wrap;html=1;fillColor=#fff2cc;strokeColor=#d6b656;fontStyle=0" parent="1" vertex="1">
          <mxGeometry x="447.5" y="70" width="95" height="30" as="geometry" />
        </mxCell>
        <mxCell id="Ti_JOpd2T_CDMf-D8d6Z-20" value="Theolog*in" style="rounded=1;whiteSpace=wrap;html=1;fillColor=#fff2cc;strokeColor=#d6b656;fontStyle=0" parent="1" vertex="1">
          <mxGeometry x="447.5" y="110" width="95" height="30" as="geometry" />
        </mxCell>
        <mxCell id="Ti_JOpd2T_CDMf-D8d6Z-22" value="Zielgruppe" style="rounded=0;whiteSpace=wrap;html=1;fillColor=#fff2cc;strokeColor=#d6b656;fontStyle=1" parent="1" vertex="1">
          <mxGeometry x="585" y="150" width="120" height="60" as="geometry" />
        </mxCell>
        <mxCell id="Ti_JOpd2T_CDMf-D8d6Z-23" value="Erwachsene" style="rounded=1;whiteSpace=wrap;html=1;fillColor=#fff2cc;strokeColor=#d6b656;fontStyle=0" parent="1" vertex="1">
          <mxGeometry x="597.5" y="30" width="95" height="30" as="geometry" />
        </mxCell>
        <mxCell id="Ti_JOpd2T_CDMf-D8d6Z-24" value="Sek2" style="rounded=1;whiteSpace=wrap;html=1;fillColor=#fff2cc;strokeColor=#d6b656;fontStyle=0" parent="1" vertex="1">
          <mxGeometry x="597.5" y="70" width="95" height="30" as="geometry" />
        </mxCell>
        <mxCell id="Ti_JOpd2T_CDMf-D8d6Z-25" value="Sek1" style="rounded=1;whiteSpace=wrap;html=1;fillColor=#fff2cc;strokeColor=#d6b656;fontStyle=0" parent="1" vertex="1">
          <mxGeometry x="597.5" y="110" width="95" height="30" as="geometry" />
        </mxCell>
        <mxCell id="Ti_JOpd2T_CDMf-D8d6Z-26" value="Thema" style="rounded=0;whiteSpace=wrap;html=1;fillColor=#d5e8d4;strokeColor=#82b366;fontStyle=1" parent="1" vertex="1">
          <mxGeometry x="360" y="228" width="120" height="60" as="geometry" />
        </mxCell>
        <mxCell id="Ti_JOpd2T_CDMf-D8d6Z-27" value="Antisemitismus" style="rounded=1;whiteSpace=wrap;html=1;fillColor=#d5e8d4;strokeColor=#82b366;fontStyle=0" parent="1" vertex="1">
          <mxGeometry x="360" y="301" width="120" height="30" as="geometry" />
        </mxCell>
        <mxCell id="Ti_JOpd2T_CDMf-D8d6Z-28" value="Rasissmus" style="rounded=1;whiteSpace=wrap;html=1;fillColor=#d5e8d4;strokeColor=#82b366;fontStyle=0" parent="1" vertex="1">
          <mxGeometry x="360" y="341" width="120" height="30" as="geometry" />
        </mxCell>
        <mxCell id="Ti_JOpd2T_CDMf-D8d6Z-29" value="Anziganismus" style="rounded=1;whiteSpace=wrap;html=1;fillColor=#d5e8d4;strokeColor=#82b366;fontStyle=0" parent="1" vertex="1">
          <mxGeometry x="360" y="381" width="120" height="30" as="geometry" />
        </mxCell>
        <mxCell id="Ti_JOpd2T_CDMf-D8d6Z-30" value="Sexismus" style="rounded=1;whiteSpace=wrap;html=1;fillColor=#d5e8d4;strokeColor=#82b366;fontStyle=0" parent="1" vertex="1">
          <mxGeometry x="360" y="421" width="120" height="30" as="geometry" />
        </mxCell>
        <mxCell id="Ti_JOpd2T_CDMf-D8d6Z-31" value="Digitalisierung" style="rounded=1;whiteSpace=wrap;html=1;fillColor=#d5e8d4;strokeColor=#82b366;fontStyle=0" parent="1" vertex="1">
          <mxGeometry x="360" y="461" width="120" height="30" as="geometry" />
        </mxCell>
        <mxCell id="Ti_JOpd2T_CDMf-D8d6Z-32" value="Homophobie" style="rounded=1;whiteSpace=wrap;html=1;fillColor=#d5e8d4;strokeColor=#82b366;fontStyle=0" parent="1" vertex="1">
          <mxGeometry x="360" y="501" width="120" height="30" as="geometry" />
        </mxCell>
        <mxCell id="Ti_JOpd2T_CDMf-D8d6Z-33" value="Intersektionalit채t" style="rounded=1;whiteSpace=wrap;html=1;fillColor=#d5e8d4;strokeColor=#82b366;fontStyle=0" parent="1" vertex="1">
          <mxGeometry x="360" y="541" width="120" height="30" as="geometry" />
        </mxCell>
        <mxCell id="Ti_JOpd2T_CDMf-D8d6Z-34" value="Inklusion" style="rounded=1;whiteSpace=wrap;html=1;fillColor=#d5e8d4;strokeColor=#82b366;fontStyle=0" parent="1" vertex="1">
          <mxGeometry x="360" y="581" width="120" height="30" as="geometry" />
        </mxCell>
        <mxCell id="Ti_JOpd2T_CDMf-D8d6Z-35" value="Leichte Sprache" style="rounded=1;whiteSpace=wrap;html=1;fillColor=#d5e8d4;strokeColor=#82b366;fontStyle=0" parent="1" vertex="1">
          <mxGeometry x="360" y="621" width="120" height="30" as="geometry" />
        </mxCell>
        <mxCell id="Ti_JOpd2T_CDMf-D8d6Z-41" value="" style="endArrow=none;html=1;entryX=0.5;entryY=1;entryDx=0;entryDy=0;exitX=0.5;exitY=0;exitDx=0;exitDy=0;fontStyle=1" parent="1" source="Ti_JOpd2T_CDMf-D8d6Z-2" target="Ti_JOpd2T_CDMf-D8d6Z-1" edge="1">
          <mxGeometry width="50" height="50" relative="1" as="geometry">
            <mxPoint x="90" y="300" as="sourcePoint" />
            <mxPoint x="140" y="250" as="targetPoint" />
          </mxGeometry>
        </mxCell>
        <mxCell id="Ti_JOpd2T_CDMf-D8d6Z-42" value="" style="endArrow=none;html=1;exitX=0;exitY=0.5;exitDx=0;exitDy=0;fontStyle=1" parent="1" source="Ti_JOpd2T_CDMf-D8d6Z-26" edge="1">
          <mxGeometry width="50" height="50" relative="1" as="geometry">
            <mxPoint x="350" y="258" as="sourcePoint" />
            <mxPoint x="100" y="258" as="targetPoint" />
          </mxGeometry>
        </mxCell>
        <mxCell id="Ti_JOpd2T_CDMf-D8d6Z-43" value="" style="endArrow=none;html=1;entryX=0;entryY=0.5;entryDx=0;entryDy=0;exitX=1;exitY=0.5;exitDx=0;exitDy=0;fontStyle=1" parent="1" source="Ti_JOpd2T_CDMf-D8d6Z-1" target="Ti_JOpd2T_CDMf-D8d6Z-4" edge="1">
          <mxGeometry width="50" height="50" relative="1" as="geometry">
            <mxPoint x="140" y="190" as="sourcePoint" />
            <mxPoint x="190" y="140" as="targetPoint" />
          </mxGeometry>
        </mxCell>
        <mxCell id="Ti_JOpd2T_CDMf-D8d6Z-44" value="" style="endArrow=none;html=1;entryX=0;entryY=0.5;entryDx=0;entryDy=0;fontStyle=1" parent="1" edge="1">
          <mxGeometry width="50" height="50" relative="1" as="geometry">
            <mxPoint x="280" y="180" as="sourcePoint" />
            <mxPoint x="310" y="179.76" as="targetPoint" />
          </mxGeometry>
        </mxCell>
        <mxCell id="Ti_JOpd2T_CDMf-D8d6Z-46" value="" style="endArrow=none;html=1;entryX=0;entryY=0.5;entryDx=0;entryDy=0;fontStyle=1" parent="1" edge="1">
          <mxGeometry width="50" height="50" relative="1" as="geometry">
            <mxPoint x="405" y="180" as="sourcePoint" />
            <mxPoint x="435.0000000000001" y="179.76" as="targetPoint" />
          </mxGeometry>
        </mxCell>
        <mxCell id="Ti_JOpd2T_CDMf-D8d6Z-48" value="" style="endArrow=none;html=1;entryX=0;entryY=0.5;entryDx=0;entryDy=0;fontStyle=1" parent="1" edge="1">
          <mxGeometry width="50" height="50" relative="1" as="geometry">
            <mxPoint x="555" y="180" as="sourcePoint" />
            <mxPoint x="585.0000000000001" y="179.76" as="targetPoint" />
          </mxGeometry>
        </mxCell>
        <mxCell id="Ti_JOpd2T_CDMf-D8d6Z-49" value="" style="endArrow=none;html=1;entryX=0;entryY=0.5;entryDx=0;entryDy=0;exitX=1;exitY=0.5;exitDx=0;exitDy=0;fontStyle=1" parent="1" edge="1">
          <mxGeometry width="50" height="50" relative="1" as="geometry">
            <mxPoint x="140" y="339.52" as="sourcePoint" />
            <mxPoint x="190" y="339.52" as="targetPoint" />
          </mxGeometry>
        </mxCell>
        <mxCell id="tHiEjt_JhOGz74CXg9K--1" value="beide" style="whiteSpace=wrap;html=1;aspect=fixed;fillColor=#d5e8d4;strokeColor=#82b366;fontStyle=1;rounded=1;glass=0;shadow=0;comic=0;" vertex="1" parent="1">
          <mxGeometry x="75" y="233" width="50" height="50" as="geometry" />
        </mxCell>
      </root>
    </mxGraphModel>
  </diagram>
</mxfile>
